<svg version="1.1" id="Layer_1" xmlns="http://www.w3.org/2000/svg" xmlns:xlink="http://www.w3.org/1999/xlink" x="0px" y="0px"
	 width="100%" viewBox="0 0 514 115" enable-background="new 0 0 514 115" xml:space="preserve">
<path fill="#000000" opacity="1.000000" stroke="none" 
	d="
M375.000000,116.000000 
	C250.000015,116.000000 125.500031,116.000000 1.000033,116.000000 
	C1.000022,77.666687 1.000022,39.333374 1.000011,1.000044 
	C172.333298,1.000029 343.666595,1.000029 514.999878,1.000015 
	C514.999939,39.333290 514.999939,77.666580 515.000000,115.999939 
	C468.500000,116.000000 422.000000,116.000000 375.000000,116.000000 
M466.152161,50.404831 
	C466.152161,52.804737 466.152161,55.204643 466.152161,57.669712 
	C468.238159,57.669712 470.075409,57.669712 473.066010,57.669712 
	C471.911560,54.661293 470.999054,52.283352 470.022034,48.994858 
	C469.958038,44.989395 469.894073,40.983929 470.172119,36.286636 
	C474.654968,34.548180 479.014618,32.258568 483.654297,31.221836 
	C488.575745,30.122137 489.935242,27.754890 488.573578,22.974375 
	C486.118500,23.845747 483.673065,24.713688 481.227631,25.581629 
	C480.946014,25.207781 480.664429,24.833933 480.382812,24.460087 
	C481.412506,23.588465 482.317902,22.233530 483.493958,21.931047 
	C487.971527,20.779402 490.120331,18.331957 489.089447,13.131904 
	C484.373840,14.919999 479.837280,16.640202 474.630585,18.614519 
	C477.218323,27.227530 471.647919,30.192877 464.570465,32.008675 
	C463.489960,32.285889 462.492126,32.903263 461.407349,33.142696 
	C457.029083,34.109077 456.150024,36.862808 457.396606,40.858070 
	C460.581970,39.930073 463.769684,39.001392 466.998627,38.984131 
	C466.955750,42.641384 466.912872,46.298634 466.152161,50.404831 
M225.993591,33.218281 
	C225.886078,32.153915 225.778549,31.089548 225.716690,30.477219 
	C222.982788,30.477219 220.619263,30.477219 218.008713,30.477219 
	C218.110245,31.593042 218.216751,32.763561 218.320618,33.905056 
	C221.156693,33.905056 223.596024,33.905056 225.800552,34.693779 
	C224.319656,34.800831 222.818695,34.789688 221.361679,35.037323 
	C217.153091,35.752617 214.320816,39.599667 215.051041,43.967121 
	C215.762802,48.224194 219.038223,49.085835 222.735550,48.979359 
	C223.782837,48.949200 224.841736,48.429550 225.862579,48.516937 
	C233.107086,49.137074 240.343063,49.856621 247.795837,50.564838 
	C247.795837,45.136147 247.795837,40.719749 247.795837,35.985214 
	C246.379654,36.131222 245.201538,36.252682 243.835434,36.393528 
	C243.835434,39.735981 243.835434,42.689842 243.835434,45.813194 
	C241.865402,45.813194 240.127106,45.813194 238.009735,45.813194 
	C238.009735,42.544796 238.009735,39.453526 238.009735,36.008728 
	C236.426880,36.137508 235.251587,36.233131 233.882034,36.344555 
	C233.882034,39.673069 233.882034,42.628712 233.882034,45.656765 
	C232.138611,45.656765 230.630356,45.656765 229.000793,45.656765 
	C229.000793,42.664257 229.326416,39.952663 228.861053,37.384396 
	C228.634232,36.132622 226.931488,35.148289 225.993591,33.218281 
M147.078903,70.412766 
	C147.399475,69.459419 147.720062,68.506081 148.040649,67.552742 
	C147.082901,67.474724 146.126175,67.367348 145.166870,67.333755 
	C144.805099,67.321091 144.205978,67.660004 144.106476,67.532692 
	C142.140884,65.018044 141.346100,67.117355 140.353745,68.447914 
	C141.597443,69.286842 142.841156,70.125771 143.844391,71.666702 
	C140.078964,72.882172 136.725739,74.648254 137.057114,79.299690 
	C137.360641,83.560394 140.603271,85.510597 144.269394,85.872032 
	C149.013443,86.339729 153.838669,85.983498 158.628937,85.983093 
	C165.309586,85.982521 171.990234,85.982948 178.998993,85.982948 
	C178.998993,83.860085 178.836990,81.043259 179.038910,78.252754 
	C179.307724,74.537651 178.808258,71.886147 174.094193,71.946449 
	C168.897659,72.012909 166.364960,73.749825 166.016708,78.269485 
	C165.905380,79.714142 165.999283,81.174606 165.999283,82.633537 
	C164.109482,82.633537 162.599579,82.633537 160.875565,82.633537 
	C160.875565,79.311432 160.875565,76.354614 160.875565,73.035378 
	C159.447571,73.139824 158.268555,73.226059 156.998566,73.318954 
	C156.998566,75.506584 157.407516,77.459755 156.876465,79.110542 
	C156.403580,80.580612 154.890152,81.715958 153.835953,82.999039 
	C152.889450,81.773003 151.352753,80.647499 151.123093,79.299355 
	C150.686218,76.734634 150.996460,74.042656 150.996460,71.057533 
	C149.440353,71.057533 148.172272,71.057533 147.078903,70.412766 
M473.930054,67.072243 
	C470.346161,67.412041 466.762268,67.751839 462.994781,67.158615 
	C462.994781,59.525421 462.994781,51.892231 462.994781,42.497223 
	C460.321259,44.988071 457.257843,46.500446 457.218658,48.087528 
	C456.850830,62.980637 457.000305,77.886528 457.000305,93.170326 
	C465.383331,89.871635 473.216034,86.789490 480.680786,83.852127 
	C480.680786,76.227547 480.680786,69.188614 480.680786,62.149677 
	C480.208557,61.840572 479.736328,61.531471 479.264099,61.222366 
	C477.714233,63.197750 476.164368,65.173134 473.930054,67.072243 
M376.485931,72.073166 
	C375.657257,73.436577 374.067108,74.833664 374.125671,76.157829 
	C374.461823,83.758591 373.367584,83.346588 367.803589,82.876785 
	C367.889984,79.680367 368.712219,74.220917 367.928436,73.979706 
	C364.345734,72.877098 359.685150,71.924034 356.597198,73.399002 
	C352.562622,75.326141 353.141144,79.550179 357.104431,82.686172 
	C349.001892,83.336639 349.001984,83.336639 349.002411,76.189651 
	C349.002625,72.891777 349.002441,69.593903 349.002441,66.296028 
	C348.516968,66.029640 348.031525,65.763245 347.546051,65.496857 
	C346.699188,66.605392 345.212280,67.664383 345.121948,68.831505 
	C344.814270,72.805794 345.062958,76.820206 344.937775,80.814224 
	C344.914825,81.546112 344.136536,82.254341 343.706940,82.973488 
	C343.136566,82.228432 342.113708,81.506821 342.073669,80.734276 
	C341.894623,77.279579 341.995789,73.810371 341.995789,70.006973 
	C340.378662,70.160110 339.212036,70.270576 337.860718,70.398544 
	C337.860718,74.757576 337.860718,78.723564 337.860718,81.999619 
	C336.158112,83.073891 334.904480,83.864861 333.650879,84.655823 
	C338.938507,85.719315 343.623840,85.564018 348.294891,85.756035 
	C355.141754,86.037506 361.976959,86.875900 368.819824,86.908600 
	C376.284821,86.944283 383.751648,86.093323 391.219879,86.054855 
	C403.853149,85.989777 403.166595,86.879372 402.948578,74.192123 
	C402.943481,73.896797 402.710785,73.605370 402.462555,73.030067 
	C401.363373,73.141357 400.187469,73.260414 398.650146,73.416061 
	C398.650146,76.857010 398.650146,79.914482 398.650146,83.885117 
	C394.218597,81.052010 397.112701,77.045418 395.451477,74.060425 
	C394.413727,74.143730 393.228729,74.238853 392.489014,74.298233 
	C390.790741,77.366127 394.458221,82.313187 388.008301,83.189392 
	C388.008301,80.290688 388.008301,77.848137 388.008301,75.011780 
	C386.452118,75.131714 385.274567,75.222473 383.729919,75.341515 
	C383.729919,78.110802 383.729919,80.529495 383.729919,83.081184 
	C381.572205,82.974411 379.820831,82.887749 378.458435,82.820335 
	C377.978668,78.907318 377.562317,75.511665 377.838654,71.997169 
	C378.472107,70.776550 379.105591,69.555939 379.739044,68.335335 
	C377.206055,68.185539 374.673065,68.035744 371.983124,67.876671 
	C372.196503,70.645821 372.041046,73.083817 375.536255,71.133179 
	C375.823700,70.972748 376.699646,71.866760 376.485931,72.073166 
M329.980255,33.180534 
	C331.011444,27.574972 326.253448,31.552898 324.685486,30.145800 
	C324.533112,30.009058 322.958557,31.457130 322.044159,32.169544 
	C322.906555,32.776493 323.714569,33.777382 324.643066,33.905529 
	C326.388611,34.146439 328.203735,33.883411 329.837830,34.646206 
	C328.361603,34.772442 326.533997,34.394024 325.480621,35.127522 
	C323.117920,36.772808 320.280579,38.594128 319.211578,41.033897 
	C317.698120,44.488083 320.300903,47.871971 323.415314,48.562893 
	C328.555847,49.703297 333.990326,49.528156 339.303040,49.875359 
	C340.449738,49.950302 341.605652,49.908115 342.756744,49.887680 
	C355.311493,49.664776 367.866058,49.429344 380.420868,49.211273 
	C384.717010,49.136654 389.020630,48.932102 393.308105,49.104027 
	C396.452209,49.230103 399.575531,49.873520 402.732056,50.289520 
	C402.732056,42.639805 402.732056,35.880821 402.732056,29.143068 
	C401.485413,29.143068 399.656860,29.080528 399.651611,29.151978 
	C399.243103,34.710629 398.977753,40.279800 398.627258,47.342876 
	C396.447479,45.521858 394.632080,44.608921 393.738708,43.136555 
	C391.714417,39.800354 390.292755,35.693680 385.483856,36.086365 
	C380.535797,36.490410 380.243073,41.032513 379.002228,44.583397 
	C378.856628,45.000095 378.755676,45.432411 378.670349,45.730476 
	C377.033264,45.730476 375.630005,45.730476 374.877991,45.730476 
	C372.159241,42.817474 377.090271,37.053928 369.891968,35.693005 
	C369.891968,39.618156 369.891968,42.721874 369.891968,45.911179 
	C367.549408,45.911179 365.571869,45.911179 363.648987,45.911179 
	C363.433899,42.079582 363.337128,37.903675 358.962128,36.554966 
	C350.454224,33.932175 345.849670,38.851601 343.185364,45.887791 
	C341.759796,42.943424 345.655792,38.169842 339.597626,36.911720 
	C337.645996,40.369991 341.887726,47.617992 332.985565,45.671329 
	C332.985565,42.743698 332.782196,39.751930 333.045441,36.801792 
	C333.286407,34.100994 331.957397,33.738682 329.980255,33.180534 
M23.963701,44.267017 
	C19.619448,49.996490 19.774055,53.906700 25.999695,59.596855 
	C25.810654,56.230148 25.621613,52.863438 25.432991,49.504196 
	C49.397556,49.504196 72.530075,49.504196 96.000687,49.504196 
	C96.000687,46.120705 96.190727,42.457722 95.877739,38.838242 
	C95.790802,37.832966 94.212433,36.956661 93.318306,36.021194 
	C92.547630,36.912785 91.257286,37.727337 91.111382,38.711544 
	C90.778496,40.957043 91.006271,43.285664 91.006271,45.658619 
	C89.136032,45.658619 87.627495,45.658619 86.141075,45.658619 
	C85.765625,35.996326 85.765625,35.996326 81.747398,36.759792 
	C81.747398,39.767300 81.747398,42.851204 81.747398,45.713139 
	C79.249352,45.713139 77.153198,45.713139 75.057045,45.713139 
	C75.460793,45.330566 75.864548,44.947994 76.268295,44.565422 
	C74.406876,41.771923 73.130066,37.627232 70.544090,36.508381 
	C66.861771,34.915188 62.103138,35.113022 58.863747,40.282841 
	C58.863747,35.998367 58.863747,32.702084 58.863747,29.021902 
	C57.452423,29.126612 56.283550,29.213335 54.755058,29.326738 
	C54.755058,35.106892 54.755058,40.529617 54.755058,46.085049 
	C52.608463,45.968582 50.860779,45.873760 48.913460,45.768108 
	C48.913460,42.388485 48.913460,39.429413 48.913460,36.051838 
	C47.493404,36.126190 46.322426,36.187504 44.804600,36.266975 
	C44.804600,39.733376 44.804600,42.831753 44.804600,45.888222 
	C42.787125,45.888222 41.136635,45.888222 39.638519,45.888222 
	C38.718140,43.875492 38.297871,41.546734 36.910774,40.261086 
	C34.943661,38.437840 32.296604,36.422916 29.877787,36.341503 
	C28.297016,36.288296 26.558283,39.474140 24.991812,41.296398 
	C24.492785,41.876911 24.320045,42.737911 23.963701,44.267017 
M278.928497,41.541111 
	C278.417847,43.016678 277.907227,44.492245 277.421570,45.895626 
	C275.700378,45.895626 274.075378,45.895626 272.217834,45.895626 
	C273.577850,43.066460 277.152405,40.588394 272.999359,37.430458 
	C269.424500,34.712185 265.298279,33.870743 261.785217,36.281433 
	C258.686371,38.407875 258.527924,42.164333 261.519043,45.761101 
	C259.113190,45.761101 257.335968,45.761101 255.191711,45.761101 
	C255.449905,43.794674 256.054413,41.722794 255.865173,39.726143 
	C255.742584,38.432720 254.460175,37.249222 253.697449,36.016457 
	C252.798218,37.104683 251.250137,38.122784 251.123505,39.294514 
	C250.768036,42.583694 251.258423,45.964012 250.906387,49.253937 
	C250.672958,51.435223 249.564133,53.522835 248.847183,55.652382 
	C249.434204,56.036564 250.021225,56.420746 250.608246,56.804928 
	C252.512680,54.676765 254.417130,52.548603 257.116119,49.532555 
	C271.200989,49.532555 286.532166,49.532555 301.984497,49.532555 
	C301.984497,43.858665 302.151154,38.371895 301.875549,32.907417 
	C301.800110,31.411266 300.398682,29.981985 299.605774,28.522017 
	C299.050415,28.740831 298.495056,28.959646 297.939697,29.178461 
	C297.939697,34.762222 297.939697,40.345982 297.939697,46.086742 
	C296.012421,45.966209 294.564301,45.875645 293.330994,45.798512 
	C292.035889,40.948116 290.108337,36.592369 284.913727,36.276031 
	C283.038147,36.161816 280.973358,39.154255 278.928497,41.541111 
M259.038086,82.117386 
	C259.038086,76.833099 259.038086,71.548813 259.038086,66.215347 
	C257.477142,66.215347 256.404968,66.215347 255.216461,66.215347 
	C255.216461,72.831413 255.216461,79.237831 255.216461,85.987419 
	C259.047546,85.987419 262.669617,85.978035 266.291595,85.989250 
	C275.607269,86.018097 284.963745,85.571747 294.216522,86.352013 
	C297.472931,86.626617 297.987213,86.212364 297.993347,83.549522 
	C298.004395,78.724602 297.882050,73.896057 298.034637,69.075958 
	C298.133026,65.968285 296.927917,65.321152 293.959290,66.581001 
	C293.959290,71.946686 293.959290,77.395088 293.959290,82.720215 
	C290.533295,83.650711 289.526672,82.158119 288.478455,79.310539 
	C287.273041,76.035858 285.234741,72.835602 280.731903,72.966202 
	C276.815674,73.079781 275.482391,75.611374 274.652527,78.810043 
	C274.301331,80.163734 273.897034,81.503677 273.553619,82.719772 
	C272.006866,82.719772 270.609375,82.719772 270.259979,82.719772 
	C266.852631,79.941124 272.158813,74.015800 265.770905,72.885178 
	C263.493774,76.766930 268.550140,84.162598 259.038086,82.117386 
M201.065674,71.412354 
	C199.622421,72.142418 198.179153,72.872490 196.735901,73.602554 
	C198.172775,75.219109 199.499832,76.023445 200.746307,75.913597 
	C206.992920,75.363098 207.561691,75.966194 206.458511,82.727310 
	C202.696121,82.727310 198.948959,82.727310 194.888519,82.727310 
	C194.888519,79.335732 194.888519,76.224876 194.888519,73.201759 
	C185.727417,70.924026 182.006531,72.103256 180.995285,77.420593 
	C179.872986,83.321831 181.765991,85.055550 191.227814,87.734497 
	C188.544342,88.365471 185.860870,88.996445 182.582535,89.767288 
	C183.252106,90.787872 184.129700,92.707840 184.510330,92.613914 
	C187.663010,91.835960 192.189178,91.570084 193.473175,89.443016 
	C195.461121,86.149742 197.663132,86.011314 200.551498,86.005646 
	C206.958221,85.993065 213.365005,86.001724 219.993851,86.001724 
	C219.993851,79.976372 219.839920,74.501068 220.051056,69.039879 
	C220.179642,65.713661 218.722534,65.570953 215.894653,66.448479 
	C215.894653,71.928650 215.894653,77.357834 215.894653,82.762192 
	C214.100189,82.762192 212.686462,82.762192 211.296478,82.762192 
	C210.514801,73.025917 209.547699,71.855774 201.065674,71.412354 
M163.001572,45.455608 
	C163.001022,43.290157 163.218048,41.092873 162.907791,38.972740 
	C162.753540,37.918587 161.844025,36.530090 160.910309,36.114204 
	C157.428970,34.563534 153.593323,34.840252 151.196167,37.638092 
	C149.505447,39.611423 149.352814,42.902565 148.432724,45.865414 
	C147.639221,45.865414 146.015335,45.865414 144.031479,45.865414 
	C144.031479,42.632824 144.031479,39.526859 144.031479,36.023647 
	C142.470703,36.128704 141.296539,36.207733 139.918152,36.300510 
	C139.918152,39.626610 139.918152,42.585098 139.918152,45.675247 
	C138.169922,45.675247 136.660889,45.675247 134.996292,45.675247 
	C134.996292,42.534531 135.127182,39.706272 134.922470,36.902512 
	C134.854462,35.971157 133.809830,34.280483 133.406952,34.336685 
	C130.406082,34.755310 127.037971,34.863346 124.613358,36.386948 
	C122.516899,37.704338 120.098373,40.965466 120.399155,42.983231 
	C120.731232,45.210884 123.674561,47.923000 126.064018,48.761688 
	C129.490494,49.964367 133.441055,49.877895 137.175873,49.955074 
	C144.643600,50.109398 152.121155,49.852638 159.585480,50.074646 
	C162.559479,50.163094 163.432953,49.097565 163.001572,45.455608 
M204.988907,34.535351 
	C204.305893,32.448029 207.011627,27.856527 200.940979,29.432442 
	C200.940979,34.948387 200.940979,40.399162 200.940979,45.849941 
	C200.453354,46.171856 199.965729,46.493771 199.478104,46.815685 
	C198.279770,45.427414 196.833939,44.181866 195.934082,42.621471 
	C193.997513,39.263393 191.902527,35.765388 187.605942,36.145138 
	C183.825806,36.479244 182.222595,39.408997 181.812607,43.289192 
	C181.683197,44.514027 179.371506,45.508286 178.058563,46.608070 
	C177.690323,46.291016 177.322067,45.973965 176.953827,45.656914 
	C176.953827,42.547592 176.953827,39.438271 176.953827,35.991047 
	C175.386444,36.138977 174.218063,36.249249 172.998901,36.364311 
	C172.998901,40.928802 173.069183,45.092232 172.944458,49.249809 
	C172.916809,50.171135 172.198898,51.071114 171.801682,51.982162 
	C171.363388,52.987419 170.928391,53.994102 170.491974,55.000172 
	C171.772415,55.048042 173.498459,55.638771 174.239975,55.030094 
	C175.755280,53.786232 176.741135,51.897385 178.481857,49.550453 
	C186.686874,49.550453 195.625046,49.550453 204.989212,49.550453 
	C204.989212,44.962627 204.989212,40.216770 204.988907,34.535351 
M483.007690,64.499191 
	C483.007690,70.597672 483.007690,76.696144 483.007690,83.358681 
	C485.394531,82.213860 487.205750,81.345139 488.655701,80.649681 
	C488.655701,64.866684 488.655701,49.515293 488.655701,34.030998 
	C483.006836,36.331505 483.001282,36.331505 482.999603,41.531387 
	C482.997223,48.854069 483.004089,56.176746 483.007690,64.499191 
M453.999969,76.767677 
	C453.913361,75.215775 453.826752,73.663872 453.721436,71.776611 
	C451.474762,72.957352 449.722961,73.878014 447.854919,74.859756 
	C447.854919,79.887985 447.854919,84.830605 447.854919,89.757057 
	C443.543640,91.541847 439.538483,93.911285 435.227997,94.800140 
	C430.104553,95.856621 429.234253,98.455750 430.393158,103.044640 
	C437.321655,100.504463 444.242218,98.141167 450.984772,95.348244 
	C452.331665,94.790337 453.714355,92.654488 453.845398,91.139412 
	C454.229950,86.692955 453.992371,82.192688 453.999969,76.767677 
M106.755943,51.768719 
	C104.640884,51.907562 102.525826,52.046402 100.031227,52.210159 
	C100.126305,53.542435 100.210640,54.724304 100.292183,55.866936 
	C110.673462,56.217999 112.014351,54.994690 112.000916,45.535984 
	C111.999496,44.540386 111.794266,43.500305 112.012207,42.556763 
	C113.065689,37.995865 110.592926,36.173141 106.666557,35.245365 
	C103.270752,34.442955 98.284508,37.312016 97.349190,41.317345 
	C96.537750,44.792217 97.298088,47.963776 101.518532,49.093403 
	C103.483261,49.619274 105.369179,50.439636 106.755943,51.768719 
M331.242432,66.052216 
	C330.496185,67.099571 329.220947,68.087326 329.095123,69.204567 
	C328.546875,74.070930 328.621643,79.022346 327.831116,83.837959 
	C327.576355,85.389778 325.301605,87.781212 324.061462,87.715111 
	C322.362640,87.624542 320.362244,85.835915 319.267303,84.241875 
	C318.479614,83.095146 318.959930,81.077400 318.867096,79.304459 
	C317.532501,79.304459 316.337738,79.304459 315.000702,79.304459 
	C315.000702,80.590584 314.984100,81.576836 315.003510,82.562378 
	C315.099731,87.453148 318.636597,91.585281 323.068848,91.997627 
	C328.021973,92.458435 331.293854,90.180359 331.867798,84.488876 
	C332.462341,78.593277 331.961914,72.587250 331.242432,66.052216 
M250.041290,74.564873 
	C248.717621,73.710197 247.497910,72.449348 246.050339,72.078835 
	C242.088760,71.064857 239.523819,73.875786 238.316605,76.738693 
	C237.167633,79.463585 237.059311,83.633545 240.691864,84.867432 
	C243.394424,85.785416 247.277344,85.820213 249.659058,84.495079 
	C253.409775,82.408249 252.831329,78.531410 250.041290,74.564873 
M301.918457,86.369644 
	C305.258820,87.992271 306.172882,86.215652 305.977692,83.312492 
	C305.594849,77.619095 305.071289,71.935165 304.605957,66.247314 
	C304.241882,65.988037 303.877838,65.728760 303.513794,65.469482 
	C302.675568,66.603905 301.151062,67.717247 301.115417,68.876335 
	C300.942505,74.504234 301.168640,80.144402 301.918457,86.369644 
M168.997742,36.583145 
	C168.997742,34.129162 168.997742,31.675182 168.997742,29.221199 
	C168.525055,28.976429 168.052368,28.731659 167.579681,28.486889 
	C166.720047,29.751593 165.179855,30.984079 165.118179,32.286564 
	C164.846375,38.027798 165.000763,43.789204 165.000763,49.962875 
	C166.484314,49.894680 167.646408,49.841267 168.998154,49.779129 
	C168.998154,45.450115 168.998154,41.502739 168.997742,36.583145 
M307.682648,29.026400 
	C306.788208,30.289654 305.199280,31.512022 305.122070,32.823383 
	C304.821472,37.929153 304.994568,43.063171 305.010773,48.186623 
	C305.012268,48.657730 305.151337,49.128403 305.283356,49.955307 
	C306.521332,49.880142 307.685181,49.809475 308.584839,49.754852 
	C308.584839,42.615150 308.584839,35.880699 307.682648,29.026400 
M406.999878,32.762260 
	C406.999878,38.264153 406.999878,43.766045 406.999878,50.860977 
	C408.737823,49.399426 410.776306,48.508144 410.839294,47.494129 
	C411.167114,42.217709 411.102203,36.905487 410.884338,31.617655 
	C410.847565,30.725315 409.395966,29.891273 408.598053,29.030308 
	C408.065460,29.963276 407.532898,30.896242 406.999878,32.762260 
M227.985977,84.858688 
	C227.985977,78.728241 227.985977,72.597794 227.985977,66.053947 
	C226.491241,66.144157 225.326996,66.214424 223.999542,66.294533 
	C223.999542,72.320572 224.060349,77.965790 223.976303,83.608849 
	C223.927429,86.890892 225.336807,87.133064 227.985977,84.858688 
M407.001038,83.920410 
	C407.601898,84.809448 408.202789,85.698486 408.803650,86.587517 
	C409.535431,85.701599 410.893433,84.817169 410.895538,83.929527 
	C410.907593,78.861259 410.719940,73.781914 410.296539,68.731773 
	C410.206818,67.661339 408.855621,66.696655 408.085632,65.683243 
	C407.723846,65.994637 407.362030,66.306030 407.000244,66.617416 
	C407.000244,72.086220 407.000244,77.555031 407.001038,83.920410 
M481.000763,90.357201 
	C480.907715,89.258965 480.814667,88.160728 480.697357,86.775879 
	C478.633301,87.361061 476.862671,87.863060 475.222900,88.327957 
	C475.222900,90.611069 475.222900,92.617630 475.222900,95.581398 
	C477.542633,93.824661 479.269958,92.516548 481.000763,90.357201 
M160.755371,88.015076 
	C159.267502,88.013367 157.680008,87.703972 156.333786,88.139816 
	C155.661102,88.357613 155.429184,89.936775 154.997894,90.900185 
	C157.036301,91.253983 159.068451,91.779457 161.117050,91.854370 
	C161.712311,91.876137 162.653534,90.689217 162.864243,89.903076 
	C162.992188,89.425781 162.024445,88.654816 160.755371,88.015076 
M97.969208,33.369762 
	C96.541817,27.904182 92.233971,34.022430 90.096573,31.412140 
	C89.747650,31.941236 89.024033,32.570995 89.133118,32.977047 
	C89.320854,33.675846 90.047371,34.778698 90.512772,34.761562 
	C92.851631,34.675438 95.179146,34.281418 97.969208,33.369762 
M232.035568,53.361168 
	C234.581085,53.819515 237.117630,54.359753 239.682556,54.641014 
	C240.035492,54.679714 240.761917,53.469139 240.870895,52.767860 
	C240.936371,52.346447 240.088181,51.330078 239.740570,51.369736 
	C237.160492,51.664112 234.602982,52.156330 232.035568,53.361168 
M155.126862,33.970013 
	C155.984589,33.741440 156.876038,33.596039 157.692215,33.265030 
	C158.952454,32.753937 160.161163,32.115833 161.391739,31.531599 
	C161.140533,31.159367 160.889328,30.787134 160.638123,30.414902 
	C158.245728,30.414902 155.853333,30.414902 152.747620,30.414902 
	C153.238464,31.537998 153.773468,32.762138 155.126862,33.970013 
M46.287159,54.958492 
	C47.745827,54.885513 49.204491,54.812538 50.941769,54.725620 
	C50.880623,53.504864 50.819511,52.284840 50.769951,51.295414 
	C48.932671,51.196693 47.412067,50.911072 45.956348,51.107170 
	C44.956135,51.241909 44.046009,52.045448 43.095619,52.550049 
	C43.898731,53.358002 44.701847,54.165955 46.287159,54.958492 
M263.183716,88.328217 
	C261.916199,94.231117 267.388916,89.895950 268.664276,91.936348 
	C269.598633,90.955009 270.532990,89.973679 272.386108,88.027382 
	C268.559875,88.027382 266.274323,88.027382 263.183716,88.328217 
M125.303658,30.012066 
	C124.798088,31.221622 124.292519,32.431179 123.497124,34.334126 
	C125.631447,33.844845 126.678452,33.656036 127.694077,33.359684 
	C129.125687,32.941952 130.534073,32.444576 131.952393,31.981251 
	C130.569260,31.632759 129.172607,31.328821 127.809212,30.915281 
	C127.208862,30.733185 126.676109,30.328228 125.303658,30.012066 
z"/>
<path fill="#FDFEFE" opacity="1.000000" stroke="none" 
	d="
M329.855377,33.965694 
	C331.957397,33.738682 333.286407,34.100994 333.045441,36.801792 
	C332.782196,39.751930 332.985565,42.743698 332.985565,45.671329 
	C341.887726,47.617992 337.645996,40.369991 339.597626,36.911720 
	C345.655792,38.169842 341.759796,42.943424 343.185364,45.887791 
	C345.849670,38.851601 350.454224,33.932175 358.962128,36.554966 
	C363.337128,37.903675 363.433899,42.079582 363.648987,45.911179 
	C365.571869,45.911179 367.549408,45.911179 369.891968,45.911179 
	C369.891968,42.721874 369.891968,39.618156 369.891968,35.693005 
	C377.090271,37.053928 372.159241,42.817474 374.877991,45.730476 
	C375.630005,45.730476 377.033264,45.730476 378.670349,45.730476 
	C378.755676,45.432411 378.856628,45.000095 379.002228,44.583397 
	C380.243073,41.032513 380.535797,36.490410 385.483856,36.086365 
	C390.292755,35.693680 391.714417,39.800354 393.738708,43.136555 
	C394.632080,44.608921 396.447479,45.521858 398.627258,47.342876 
	C398.977753,40.279800 399.243103,34.710629 399.651611,29.151978 
	C399.656860,29.080528 401.485413,29.143068 402.732056,29.143068 
	C402.732056,35.880821 402.732056,42.639805 402.732056,50.289520 
	C399.575531,49.873520 396.452209,49.230103 393.308105,49.104027 
	C389.020630,48.932102 384.717010,49.136654 380.420868,49.211273 
	C367.866058,49.429344 355.311493,49.664776 342.756744,49.887680 
	C341.605652,49.908115 340.449738,49.950302 339.303040,49.875359 
	C333.990326,49.528156 328.555847,49.703297 323.415314,48.562893 
	C320.300903,47.871971 317.698120,44.488083 319.211578,41.033897 
	C320.280579,38.594128 323.117920,36.772808 325.480621,35.127522 
	C326.533997,34.394024 328.361603,34.772442 329.879303,34.271072 
	C329.920776,33.895939 329.855377,33.965694 329.855377,33.965694 
M348.908356,43.542347 
	C349.169037,44.359226 349.393982,45.870834 349.695923,45.886375 
	C353.000580,46.056469 356.317261,45.992992 359.672760,45.992992 
	C358.176575,39.457592 356.742798,38.523014 351.725861,40.804817 
	C350.738770,41.253765 349.920410,42.073643 348.908356,43.542347 
M326.674774,44.999989 
	C331.256012,44.291340 328.143341,41.185730 329.460815,37.712399 
	C326.434479,39.202606 324.735229,40.039333 323.035980,40.876072 
	C323.956421,42.253403 324.876892,43.630733 326.674774,44.999989 
M385.127136,40.558033 
	C385.586761,41.585812 386.046417,42.613590 386.506042,43.641369 
	C386.889587,43.386005 387.273132,43.130638 387.656677,42.875271 
	C386.980652,41.932571 386.304596,40.989872 385.127136,40.558033 
z"/>
<path fill="#FDFDFD" opacity="1.000000" stroke="none" 
	d="
M23.980852,43.868790 
	C24.320045,42.737911 24.492785,41.876911 24.991812,41.296398 
	C26.558283,39.474140 28.297016,36.288296 29.877787,36.341503 
	C32.296604,36.422916 34.943661,38.437840 36.910774,40.261086 
	C38.297871,41.546734 38.718140,43.875492 39.638519,45.888222 
	C41.136635,45.888222 42.787125,45.888222 44.804600,45.888222 
	C44.804600,42.831753 44.804600,39.733376 44.804600,36.266975 
	C46.322426,36.187504 47.493404,36.126190 48.913460,36.051838 
	C48.913460,39.429413 48.913460,42.388485 48.913460,45.768108 
	C50.860779,45.873760 52.608463,45.968582 54.755058,46.085049 
	C54.755058,40.529617 54.755058,35.106892 54.755058,29.326738 
	C56.283550,29.213335 57.452423,29.126612 58.863747,29.021902 
	C58.863747,32.702084 58.863747,35.998367 58.863747,40.282841 
	C62.103138,35.113022 66.861771,34.915188 70.544090,36.508381 
	C73.130066,37.627232 74.406876,41.771923 76.268295,44.565422 
	C75.864548,44.947994 75.460793,45.330566 75.057045,45.713139 
	C77.153198,45.713139 79.249352,45.713139 81.747398,45.713139 
	C81.747398,42.851204 81.747398,39.767300 81.747398,36.759792 
	C85.765625,35.996326 85.765625,35.996326 86.141075,45.658619 
	C87.627495,45.658619 89.136032,45.658619 91.006271,45.658619 
	C91.006271,43.285664 90.778496,40.957043 91.111382,38.711544 
	C91.257286,37.727337 92.547630,36.912785 93.318306,36.021194 
	C94.212433,36.956661 95.790802,37.832966 95.877739,38.838242 
	C96.190727,42.457722 96.000687,46.120705 96.000687,49.504196 
	C72.530075,49.504196 49.397556,49.504196 25.432991,49.504196 
	C25.621613,52.863438 25.810654,56.230148 25.999695,59.596855 
	C19.774055,53.906700 19.619448,49.996490 23.980852,43.868790 
M68.315338,45.997730 
	C69.209694,45.082417 70.781860,44.192234 70.816986,43.245060 
	C70.855865,42.196499 69.694221,40.441780 68.698975,40.129108 
	C63.958797,38.639946 61.435699,40.513058 60.422676,45.997929 
	C62.769131,45.997929 65.084167,45.997929 68.315338,45.997730 
z"/>
<path fill="#FDFDFD" opacity="1.000000" stroke="none" 
	d="
M377.145966,72.116013 
	C377.562317,75.511665 377.978668,78.907318 378.458435,82.820335 
	C379.820831,82.887749 381.572205,82.974411 383.729919,83.081184 
	C383.729919,80.529495 383.729919,78.110802 383.729919,75.341515 
	C385.274567,75.222473 386.452118,75.131714 388.008301,75.011780 
	C388.008301,77.848137 388.008301,80.290688 388.008301,83.189392 
	C394.458221,82.313187 390.790741,77.366127 392.489014,74.298233 
	C393.228729,74.238853 394.413727,74.143730 395.451477,74.060425 
	C397.112701,77.045418 394.218597,81.052010 398.650146,83.885117 
	C398.650146,79.914482 398.650146,76.857010 398.650146,73.416061 
	C400.187469,73.260414 401.363373,73.141357 402.462555,73.030067 
	C402.710785,73.605370 402.943481,73.896797 402.948578,74.192123 
	C403.166595,86.879372 403.853149,85.989777 391.219879,86.054855 
	C383.751648,86.093323 376.284821,86.944283 368.819824,86.908600 
	C361.976959,86.875900 355.141754,86.037506 348.294891,85.756035 
	C343.623840,85.564018 338.938507,85.719315 333.650879,84.655823 
	C334.904480,83.864861 336.158112,83.073891 337.860718,81.999619 
	C337.860718,78.723564 337.860718,74.757576 337.860718,70.398544 
	C339.212036,70.270576 340.378662,70.160110 341.995789,70.006973 
	C341.995789,73.810371 341.894623,77.279579 342.073669,80.734276 
	C342.113708,81.506821 343.136566,82.228432 343.706940,82.973488 
	C344.136536,82.254341 344.914825,81.546112 344.937775,80.814224 
	C345.062958,76.820206 344.814270,72.805794 345.121948,68.831505 
	C345.212280,67.664383 346.699188,66.605392 347.546051,65.496857 
	C348.031525,65.763245 348.516968,66.029640 349.002441,66.296028 
	C349.002441,69.593903 349.002625,72.891777 349.002411,76.189651 
	C349.001984,83.336639 349.001892,83.336639 357.104431,82.686172 
	C353.141144,79.550179 352.562622,75.326141 356.597198,73.399002 
	C359.685150,71.924034 364.345734,72.877098 367.928436,73.979706 
	C368.712219,74.220917 367.889984,79.680367 367.803589,82.876785 
	C373.367584,83.346588 374.461823,83.758591 374.125671,76.157829 
	C374.067108,74.833664 375.657257,73.436577 376.853271,72.135040 
	C377.220581,72.196915 377.145966,72.116013 377.145966,72.116013 
M364.978210,78.016724 
	C362.859924,77.093285 360.741669,76.169838 357.667267,74.829582 
	C360.112946,82.006332 360.719055,82.231033 364.978210,78.016724 
z"/>
<path fill="#FDFEFE" opacity="1.000000" stroke="none" 
	d="
M278.961731,41.135075 
	C280.973358,39.154255 283.038147,36.161816 284.913727,36.276031 
	C290.108337,36.592369 292.035889,40.948116 293.330994,45.798512 
	C294.564301,45.875645 296.012421,45.966209 297.939697,46.086742 
	C297.939697,40.345982 297.939697,34.762222 297.939697,29.178461 
	C298.495056,28.959646 299.050415,28.740831 299.605774,28.522017 
	C300.398682,29.981985 301.800110,31.411266 301.875549,32.907417 
	C302.151154,38.371895 301.984497,43.858665 301.984497,49.532555 
	C286.532166,49.532555 271.200989,49.532555 257.116119,49.532555 
	C254.417130,52.548603 252.512680,54.676765 250.608246,56.804928 
	C250.021225,56.420746 249.434204,56.036564 248.847183,55.652382 
	C249.564133,53.522835 250.672958,51.435223 250.906387,49.253937 
	C251.258423,45.964012 250.768036,42.583694 251.123505,39.294514 
	C251.250137,38.122784 252.798218,37.104683 253.697449,36.016464 
	C254.460175,37.249222 255.742584,38.432720 255.865173,39.726143 
	C256.054413,41.722794 255.449905,43.794674 255.191711,45.761101 
	C257.335968,45.761101 259.113190,45.761101 261.519043,45.761101 
	C258.527924,42.164333 258.686371,38.407875 261.785217,36.281433 
	C265.298279,33.870743 269.424500,34.712185 272.999359,37.430458 
	C277.152405,40.588394 273.577850,43.066460 272.217834,45.895626 
	C274.075378,45.895626 275.700378,45.895626 277.421570,45.895626 
	C277.907227,44.492245 278.417847,43.016678 278.961731,41.135075 
M288.744080,45.745941 
	C287.174042,43.839951 285.604004,41.933964 284.033966,40.027962 
	C283.218689,41.827145 282.403412,43.626328 281.335724,45.982574 
	C284.320618,45.982574 286.127075,45.982574 288.744080,45.745941 
M263.485138,40.968529 
	C264.583618,42.197659 265.682068,43.426792 266.780518,44.655933 
	C268.200531,43.306690 269.620544,41.957447 271.040558,40.608208 
	C270.777039,39.996815 270.513519,39.385426 270.250000,38.774033 
	C267.917786,39.263866 265.585571,39.753696 263.485138,40.968529 
z"/>
<path fill="#F5FBFC" opacity="1.000000" stroke="none" 
	d="
M474.614502,67.148506 
	C476.164368,65.173134 477.714233,63.197750 479.264099,61.222366 
	C479.736328,61.531471 480.208557,61.840572 480.680786,62.149677 
	C480.680786,69.188614 480.680786,76.227547 480.680786,83.852127 
	C473.216034,86.789490 465.383331,89.871635 457.000305,93.170326 
	C457.000305,77.886528 456.850830,62.980637 457.218658,48.087528 
	C457.257843,46.500446 460.321259,44.988071 462.994781,42.497223 
	C462.994781,51.892231 462.994781,59.525421 462.975647,68.059296 
	C462.956512,73.966751 462.956512,78.973526 462.956512,84.093155 
	C475.190155,81.526283 475.235352,81.479881 474.965271,70.087158 
	C474.942017,69.105385 474.735779,68.127945 474.614502,67.148506 
z"/>
<path fill="#FDFDFD" opacity="1.000000" stroke="none" 
	d="
M259.272339,82.518326 
	C268.550140,84.162598 263.493774,76.766930 265.770905,72.885178 
	C272.158813,74.015800 266.852631,79.941124 270.259979,82.719772 
	C270.609375,82.719772 272.006866,82.719772 273.553619,82.719772 
	C273.897034,81.503677 274.301331,80.163734 274.652527,78.810043 
	C275.482391,75.611374 276.815674,73.079781 280.731903,72.966202 
	C285.234741,72.835602 287.273041,76.035858 288.478455,79.310539 
	C289.526672,82.158119 290.533295,83.650711 293.959290,82.720215 
	C293.959290,77.395088 293.959290,71.946686 293.959290,66.581001 
	C296.927917,65.321152 298.133026,65.968285 298.034637,69.075958 
	C297.882050,73.896057 298.004395,78.724602 297.993347,83.549522 
	C297.987213,86.212364 297.472931,86.626617 294.216522,86.352013 
	C284.963745,85.571747 275.607269,86.018097 266.291595,85.989250 
	C262.669617,85.978035 259.047546,85.987419 255.216461,85.987419 
	C255.216461,79.237831 255.216461,72.831413 255.216461,66.215347 
	C256.404968,66.215347 257.477142,66.215347 259.038086,66.215347 
	C259.038086,71.548813 259.038086,76.833099 259.272339,82.518326 
z"/>
<path fill="#FDFDFE" opacity="1.000000" stroke="none" 
	d="
M201.421295,71.220917 
	C209.547699,71.855774 210.514801,73.025917 211.296478,82.762192 
	C212.686462,82.762192 214.100189,82.762192 215.894653,82.762192 
	C215.894653,77.357834 215.894653,71.928650 215.894653,66.448479 
	C218.722534,65.570953 220.179642,65.713661 220.051056,69.039879 
	C219.839920,74.501068 219.993851,79.976372 219.993851,86.001724 
	C213.365005,86.001724 206.958221,85.993065 200.551498,86.005646 
	C197.663132,86.011314 195.461121,86.149742 193.473175,89.443016 
	C192.189178,91.570084 187.663010,91.835960 184.510330,92.613914 
	C184.129700,92.707840 183.252106,90.787872 182.582535,89.767288 
	C185.860870,88.996445 188.544342,88.365471 191.227814,87.734497 
	C181.765991,85.055550 179.872986,83.321831 180.995285,77.420593 
	C182.006531,72.103256 185.727417,70.924026 194.888519,73.201759 
	C194.888519,76.224876 194.888519,79.335732 194.888519,82.727310 
	C198.948959,82.727310 202.696121,82.727310 206.458511,82.727310 
	C207.561691,75.966194 206.992920,75.363098 200.746307,75.913597 
	C199.499832,76.023445 198.172775,75.219109 196.735901,73.602554 
	C198.179153,72.872490 199.622421,72.142418 201.421295,71.220917 
M185.002075,79.504669 
	C185.357391,83.483688 188.121719,82.870804 190.806732,82.959946 
	C190.806732,80.452415 190.806732,78.387413 190.806732,74.595924 
	C188.281158,76.355392 186.642807,77.496758 185.002075,79.504669 
z"/>
<path fill="#FEFEFE" opacity="1.000000" stroke="none" 
	d="
M163.001526,45.932167 
	C163.432953,49.097565 162.559479,50.163094 159.585480,50.074646 
	C152.121155,49.852638 144.643600,50.109398 137.175873,49.955074 
	C133.441055,49.877895 129.490494,49.964367 126.064018,48.761688 
	C123.674561,47.923000 120.731232,45.210884 120.399155,42.983231 
	C120.098373,40.965466 122.516899,37.704338 124.613358,36.386948 
	C127.037971,34.863346 130.406082,34.755310 133.406952,34.336685 
	C133.809830,34.280483 134.854462,35.971157 134.922470,36.902512 
	C135.127182,39.706272 134.996292,42.534531 134.996292,45.675247 
	C136.660889,45.675247 138.169922,45.675247 139.918152,45.675247 
	C139.918152,42.585098 139.918152,39.626610 139.918152,36.300510 
	C141.296539,36.207733 142.470703,36.128704 144.031479,36.023647 
	C144.031479,39.526859 144.031479,42.632824 144.031479,45.865414 
	C146.015335,45.865414 147.639221,45.865414 148.432724,45.865414 
	C149.352814,42.902565 149.505447,39.611423 151.196167,37.638092 
	C153.593323,34.840252 157.428970,34.563534 160.910309,36.114204 
	C161.844025,36.530090 162.753540,37.918587 162.907791,38.972740 
	C163.218048,41.092873 163.001022,43.290157 163.001526,45.932167 
M154.621140,39.923244 
	C154.168991,41.496979 152.912750,44.031666 153.421356,44.457272 
	C154.741974,45.562351 156.838608,45.740051 158.787689,46.337559 
	C158.787689,43.287140 158.787689,41.201870 158.787689,38.924206 
	C157.435364,39.060192 156.311417,39.173214 154.621140,39.923244 
M130.431244,39.064335 
	C128.183075,39.204800 124.731934,37.971512 125.233154,41.928093 
	C125.419128,43.396206 128.211090,44.534203 129.814621,45.822742 
	C130.195480,45.419739 130.576355,45.016735 130.957230,44.613728 
	C130.957230,43.004143 130.957230,41.394554 130.431244,39.064335 
z"/>
<path fill="#FDFDFD" opacity="1.000000" stroke="none" 
	d="
M146.904190,71.057533 
	C148.172272,71.057533 149.440353,71.057533 150.996460,71.057533 
	C150.996460,74.042656 150.686218,76.734634 151.123093,79.299355 
	C151.352753,80.647499 152.889450,81.773003 153.835953,82.999039 
	C154.890152,81.715958 156.403580,80.580612 156.876465,79.110542 
	C157.407516,77.459755 156.998566,75.506584 156.998566,73.318954 
	C158.268555,73.226059 159.447571,73.139824 160.875565,73.035378 
	C160.875565,76.354614 160.875565,79.311432 160.875565,82.633537 
	C162.599579,82.633537 164.109482,82.633537 165.999283,82.633537 
	C165.999283,81.174606 165.905380,79.714142 166.016708,78.269485 
	C166.364960,73.749825 168.897659,72.012909 174.094193,71.946449 
	C178.808258,71.886147 179.307724,74.537651 179.038910,78.252754 
	C178.836990,81.043259 178.998993,83.860085 178.998993,85.982948 
	C171.990234,85.982948 165.309586,85.982521 158.628937,85.983093 
	C153.838669,85.983498 149.013443,86.339729 144.269394,85.872032 
	C140.603271,85.510597 137.360641,83.560394 137.057114,79.299690 
	C136.725739,74.648254 140.078964,72.882172 143.923889,71.326370 
	C144.003403,70.986031 143.977631,71.066200 144.312775,71.099686 
	C145.459351,71.070374 146.270752,71.007568 147.033234,70.965950 
	C146.984299,70.987137 146.904190,71.057533 146.904190,71.057533 
M170.000763,79.507889 
	C171.205078,80.906593 172.409409,82.305298 173.613724,83.704002 
	C173.992920,83.435188 174.372116,83.166382 174.751312,82.897575 
	C174.751312,80.697739 174.751312,78.497902 174.751312,74.674065 
	C172.622040,76.454628 171.312515,77.549675 170.000763,79.507889 
M142.823441,76.020699 
	C142.505539,77.467209 141.738342,79.018532 142.041977,80.320038 
	C142.217880,81.074020 144.117126,81.425957 145.240845,81.958824 
	C146.026169,79.877258 146.811508,77.795692 147.596832,75.714119 
	C147.187286,75.591278 146.777725,75.468437 146.368179,75.345596 
	C146.122849,76.732925 145.877518,78.120262 145.674835,79.266502 
	C144.980072,78.154427 144.305695,77.074944 142.823441,76.020699 
z"/>
<path fill="#FEFEFE" opacity="1.000000" stroke="none" 
	d="
M204.989059,35.003136 
	C204.989212,40.216770 204.989212,44.962627 204.989212,49.550453 
	C195.625046,49.550453 186.686874,49.550453 178.481857,49.550453 
	C176.741135,51.897385 175.755280,53.786232 174.239975,55.030094 
	C173.498459,55.638771 171.772415,55.048042 170.491974,55.000172 
	C170.928391,53.994102 171.363388,52.987419 171.801682,51.982162 
	C172.198898,51.071114 172.916809,50.171135 172.944458,49.249809 
	C173.069183,45.092232 172.998901,40.928802 172.998901,36.364311 
	C174.218063,36.249249 175.386444,36.138977 176.953827,35.991047 
	C176.953827,39.438271 176.953827,42.547592 176.953827,45.656914 
	C177.322067,45.973965 177.690323,46.291016 178.058563,46.608070 
	C179.371506,45.508286 181.683197,44.514027 181.812607,43.289192 
	C182.222595,39.408997 183.825806,36.479244 187.605942,36.145138 
	C191.902527,35.765388 193.997513,39.263393 195.934082,42.621471 
	C196.833939,44.181866 198.279770,45.427414 199.478104,46.815685 
	C199.965729,46.493771 200.453354,46.171856 200.940979,45.849941 
	C200.940979,40.399162 200.940979,34.948387 200.940979,29.432442 
	C207.011627,27.856527 204.305893,32.448029 204.989059,35.003136 
M188.996017,42.522514 
	C188.675690,42.627178 188.355362,42.731838 188.035034,42.836487 
	C188.413116,43.213017 188.791183,43.589546 189.169250,43.966080 
	C189.276031,43.647671 189.382797,43.329262 188.996017,42.522514 
z"/>
<path fill="#FBFCFB" opacity="1.000000" stroke="none" 
	d="
M466.957397,38.072716 
	C463.769684,39.001392 460.581970,39.930073 457.396606,40.858070 
	C456.150024,36.862808 457.029083,34.109077 461.407349,33.142696 
	C462.492126,32.903263 463.489960,32.285889 464.570465,32.008675 
	C471.647919,30.192877 477.218323,27.227530 474.630585,18.614519 
	C479.837280,16.640202 484.373840,14.919999 489.089447,13.131904 
	C490.120331,18.331957 487.971527,20.779402 483.493958,21.931047 
	C482.317902,22.233530 481.412506,23.588465 480.382812,24.460087 
	C480.664429,24.833933 480.946014,25.207781 481.227631,25.581629 
	C483.673065,24.713688 486.118500,23.845747 488.573578,22.974375 
	C489.935242,27.754890 488.575745,30.122137 483.654297,31.221836 
	C479.014618,32.258568 474.654968,34.548180 469.668732,36.630264 
	C468.429352,37.340172 467.693390,37.706448 466.957397,38.072716 
z"/>
<path fill="#FEFEFE" opacity="1.000000" stroke="none" 
	d="
M225.896835,34.042900 
	C226.931488,35.148289 228.634232,36.132622 228.861053,37.384396 
	C229.326416,39.952663 229.000793,42.664257 229.000793,45.656765 
	C230.630356,45.656765 232.138611,45.656765 233.882034,45.656765 
	C233.882034,42.628712 233.882034,39.673069 233.882034,36.344555 
	C235.251587,36.233131 236.426880,36.137508 238.009735,36.008728 
	C238.009735,39.453526 238.009735,42.544796 238.009735,45.813194 
	C240.127106,45.813194 241.865402,45.813194 243.835434,45.813194 
	C243.835434,42.689842 243.835434,39.735981 243.835434,36.393528 
	C245.201538,36.252682 246.379654,36.131222 247.795837,35.985214 
	C247.795837,40.719749 247.795837,45.136147 247.795837,50.564838 
	C240.343063,49.856621 233.107086,49.137074 225.862579,48.516937 
	C224.841736,48.429550 223.782837,48.949200 222.735550,48.979359 
	C219.038223,49.085835 215.762802,48.224194 215.051041,43.967121 
	C214.320816,39.599667 217.153091,35.752617 221.361679,35.037323 
	C222.818695,34.789688 224.319656,34.800831 225.882477,34.333023 
	C225.964386,33.972263 225.896835,34.042904 225.896835,34.042900 
M219.041351,40.708622 
	C218.494324,45.792946 221.597290,45.192574 224.761520,44.746559 
	C224.761520,42.672363 224.761520,40.933376 224.761520,38.555302 
	C222.779083,39.100979 221.153259,39.548489 219.041351,40.708622 
z"/>
<path fill="#FCFDFD" opacity="1.000000" stroke="none" 
	d="
M483.007355,63.999310 
	C483.004089,56.176746 482.997223,48.854069 482.999603,41.531387 
	C483.001282,36.331505 483.006836,36.331505 488.655701,34.030998 
	C488.655701,49.515293 488.655701,64.866684 488.655701,80.649681 
	C487.205750,81.345139 485.394531,82.213860 483.007690,83.358681 
	C483.007690,76.696144 483.007690,70.597672 483.007355,63.999310 
z"/>
<path fill="#FCFDFC" opacity="1.000000" stroke="none" 
	d="
M453.999207,77.240585 
	C453.992371,82.192688 454.229950,86.692955 453.845398,91.139412 
	C453.714355,92.654488 452.331665,94.790337 450.984772,95.348244 
	C444.242218,98.141167 437.321655,100.504463 430.393158,103.044640 
	C429.234253,98.455750 430.104553,95.856621 435.227997,94.800140 
	C439.538483,93.911285 443.543640,91.541847 447.854919,89.757057 
	C447.854919,84.830605 447.854919,79.887985 447.854919,74.859756 
	C449.722961,73.878014 451.474762,72.957352 453.721436,71.776611 
	C453.826752,73.663872 453.913361,75.215775 453.999207,77.240585 
z"/>
<path fill="#FDFEFE" opacity="1.000000" stroke="none" 
	d="
M107.023376,51.447617 
	C105.369179,50.439636 103.483261,49.619274 101.518532,49.093403 
	C97.298088,47.963776 96.537750,44.792217 97.349190,41.317345 
	C98.284508,37.312016 103.270752,34.442955 106.666557,35.245365 
	C110.592926,36.173141 113.065689,37.995865 112.012207,42.556763 
	C111.794266,43.500305 111.999496,44.540386 112.000916,45.535984 
	C112.014351,54.994690 110.673462,56.217999 100.292183,55.866936 
	C100.210640,54.724304 100.126305,53.542435 100.031227,52.210159 
	C102.525826,52.046402 104.640884,51.907562 107.023376,51.447617 
M107.440247,45.933441 
	C107.701385,43.180946 110.166969,39.295437 104.701889,39.278240 
	C103.486465,39.274410 102.263283,41.734558 101.043678,43.060219 
	C102.890717,44.038246 104.737755,45.016273 107.440247,45.933441 
z"/>
<path fill="#45B4F2" opacity="1.000000" stroke="none" 
	d="
M474.272278,67.110367 
	C474.735779,68.127945 474.942017,69.105385 474.965271,70.087158 
	C475.235352,81.479881 475.190155,81.526283 462.956512,84.093155 
	C462.956512,78.973526 462.956512,73.966751 463.067444,68.525803 
	C466.762268,67.751839 470.346161,67.412041 474.272278,67.110367 
z"/>
<path fill="#FEFEFE" opacity="1.000000" stroke="none" 
	d="
M331.591431,66.340866 
	C331.961914,72.587250 332.462341,78.593277 331.867798,84.488876 
	C331.293854,90.180359 328.021973,92.458435 323.068848,91.997627 
	C318.636597,91.585281 315.099731,87.453148 315.003510,82.562378 
	C314.984100,81.576836 315.000702,80.590584 315.000702,79.304459 
	C316.337738,79.304459 317.532501,79.304459 318.867096,79.304459 
	C318.959930,81.077400 318.479614,83.095146 319.267303,84.241875 
	C320.362244,85.835915 322.362640,87.624542 324.061462,87.715111 
	C325.301605,87.781212 327.576355,85.389778 327.831116,83.837959 
	C328.621643,79.022346 328.546875,74.070930 329.095123,69.204567 
	C329.220947,68.087326 330.496185,67.099571 331.591431,66.340866 
z"/>
<path fill="#FDFEFE" opacity="1.000000" stroke="none" 
	d="
M250.346527,74.833855 
	C252.831329,78.531410 253.409775,82.408249 249.659058,84.495079 
	C247.277344,85.820213 243.394424,85.785416 240.691864,84.867432 
	C237.059311,83.633545 237.167633,79.463585 238.316605,76.738693 
	C239.523819,73.875786 242.088760,71.064857 246.050339,72.078835 
	C247.497910,72.449348 248.717621,73.710197 250.346527,74.833855 
M246.529892,81.978668 
	C246.779022,80.242142 247.197632,78.496544 247.105560,76.778305 
	C247.090729,76.501411 244.361801,75.759712 243.669418,76.277817 
	C242.721481,76.987152 241.758606,79.109390 242.176788,79.881874 
	C242.834305,81.096451 244.638062,81.690536 246.529892,81.978668 
z"/>
<path fill="#FCFEFD" opacity="1.000000" stroke="none" 
	d="
M301.585938,86.074936 
	C301.168640,80.144402 300.942505,74.504234 301.115417,68.876335 
	C301.151062,67.717247 302.675568,66.603905 303.513794,65.469482 
	C303.877838,65.728760 304.241882,65.988037 304.605957,66.247314 
	C305.071289,71.935165 305.594849,77.619095 305.977692,83.312492 
	C306.172882,86.215652 305.258820,87.992271 301.585938,86.074936 
z"/>
<path fill="#FDFDFD" opacity="1.000000" stroke="none" 
	d="
M168.997955,37.069252 
	C168.998154,41.502739 168.998154,45.450115 168.998154,49.779129 
	C167.646408,49.841267 166.484314,49.894680 165.000763,49.962875 
	C165.000763,43.789204 164.846375,38.027798 165.118179,32.286564 
	C165.179855,30.984079 166.720047,29.751593 167.579681,28.486889 
	C168.052368,28.731659 168.525055,28.976429 168.997742,29.221199 
	C168.997742,31.675182 168.997742,34.129162 168.997955,37.069252 
z"/>
<path fill="#FEFEFE" opacity="1.000000" stroke="none" 
	d="
M308.133728,29.086323 
	C308.584839,35.880699 308.584839,42.615150 308.584839,49.754852 
	C307.685181,49.809475 306.521332,49.880142 305.283356,49.955307 
	C305.151337,49.128403 305.012268,48.657730 305.010773,48.186623 
	C304.994568,43.063171 304.821472,37.929153 305.122070,32.823383 
	C305.199280,31.512022 306.788208,30.289654 308.133728,29.086323 
z"/>
<path fill="#FEFFFE" opacity="1.000000" stroke="none" 
	d="
M407.000092,32.295734 
	C407.532898,30.896242 408.065460,29.963276 408.598053,29.030304 
	C409.395966,29.891273 410.847565,30.725315 410.884338,31.617655 
	C411.102203,36.905487 411.167114,42.217709 410.839294,47.494129 
	C410.776306,48.508144 408.737823,49.399426 406.999878,50.860977 
	C406.999878,43.766045 406.999878,38.264153 407.000092,32.295734 
z"/>
<path fill="#FEFEFE" opacity="1.000000" stroke="none" 
	d="
M227.881653,85.285645 
	C225.336807,87.133064 223.927429,86.890892 223.976303,83.608849 
	C224.060349,77.965790 223.999542,72.320572 223.999542,66.294533 
	C225.326996,66.214424 226.491241,66.144157 227.985977,66.053947 
	C227.985977,72.597794 227.985977,78.728241 227.881653,85.285645 
z"/>
<path fill="#FEFFFE" opacity="1.000000" stroke="none" 
	d="
M407.000641,83.472122 
	C407.000244,77.555031 407.000244,72.086220 407.000244,66.617416 
	C407.362030,66.306030 407.723846,65.994637 408.085632,65.683243 
	C408.855621,66.696655 410.206818,67.661339 410.296539,68.731773 
	C410.719940,73.781914 410.907593,78.861259 410.895538,83.929527 
	C410.893433,84.817169 409.535431,85.701599 408.803650,86.587524 
	C408.202789,85.698486 407.601898,84.809448 407.000641,83.472122 
z"/>
<path fill="#F5F5F2" opacity="1.000000" stroke="none" 
	d="
M470.086548,49.905411 
	C470.999054,52.283352 471.911560,54.661293 473.066010,57.669712 
	C470.075409,57.669712 468.238159,57.669712 466.152161,57.669712 
	C466.152161,55.204643 466.152161,52.804737 466.914001,50.181091 
	C468.479431,49.940033 469.282990,49.922722 470.086548,49.905411 
z"/>
<path fill="#E8D9B0" opacity="1.000000" stroke="none" 
	d="
M470.054291,49.450134 
	C469.282990,49.922722 468.479431,49.940033 467.272949,49.956619 
	C466.912872,46.298634 466.955750,42.641384 466.978027,38.528427 
	C467.693390,37.706448 468.429352,37.340172 469.497742,36.976181 
	C469.894073,40.983929 469.958038,44.989395 470.054291,49.450134 
z"/>
<path fill="#FCFDFC" opacity="1.000000" stroke="none" 
	d="
M480.999023,90.782822 
	C479.269958,92.516548 477.542633,93.824661 475.222900,95.581398 
	C475.222900,92.617630 475.222900,90.611069 475.222900,88.327957 
	C476.862671,87.863060 478.633301,87.361061 480.697357,86.775879 
	C480.814667,88.160728 480.907715,89.258965 480.999023,90.782822 
z"/>
<path fill="#FBFBFB" opacity="1.000000" stroke="none" 
	d="
M225.999863,33.938660 
	C223.596024,33.905056 221.156693,33.905056 218.320618,33.905056 
	C218.216751,32.763561 218.110245,31.593042 218.008713,30.477219 
	C220.619263,30.477219 222.982788,30.477219 225.716690,30.477219 
	C225.778549,31.089548 225.886078,32.153915 225.945221,33.630592 
	C225.896835,34.042904 225.964386,33.972263 225.999863,33.938660 
z"/>
<path fill="#FBFCFB" opacity="1.000000" stroke="none" 
	d="
M161.152145,88.015427 
	C162.024445,88.654816 162.992188,89.425781 162.864243,89.903076 
	C162.653534,90.689217 161.712311,91.876137 161.117050,91.854370 
	C159.068451,91.779457 157.036301,91.253983 154.997894,90.900185 
	C155.429184,89.936775 155.661102,88.357613 156.333786,88.139816 
	C157.680008,87.703972 159.267502,88.013367 161.152145,88.015427 
z"/>
<path fill="#F9FAF9" opacity="1.000000" stroke="none" 
	d="
M97.739929,33.682648 
	C95.179146,34.281418 92.851631,34.675438 90.512772,34.761562 
	C90.047371,34.778698 89.320854,33.675846 89.133118,32.977047 
	C89.024033,32.570995 89.747650,31.941236 90.096573,31.412140 
	C92.233971,34.022430 96.541817,27.904182 97.739929,33.682648 
z"/>
<path fill="#FCFDFD" opacity="1.000000" stroke="none" 
	d="
M377.261353,72.233871 
	C376.699646,71.866760 375.823700,70.972748 375.536255,71.133179 
	C372.041046,73.083817 372.196503,70.645821 371.983124,67.876671 
	C374.673065,68.035744 377.206055,68.185539 379.739044,68.335327 
	C379.105591,69.555939 378.472107,70.776550 377.492310,72.056595 
	C377.145966,72.116013 377.220581,72.196915 377.261353,72.233871 
z"/>
<path fill="#FBFCFB" opacity="1.000000" stroke="none" 
	d="
M232.036987,52.973793 
	C234.602982,52.156330 237.160492,51.664112 239.740570,51.369736 
	C240.088181,51.330078 240.936371,52.346447 240.870895,52.767860 
	C240.761917,53.469139 240.035492,54.679714 239.682556,54.641014 
	C237.117630,54.359753 234.581085,53.819515 232.036987,52.973793 
z"/>
<path fill="#F6F7F6" opacity="1.000000" stroke="none" 
	d="
M329.955353,33.862930 
	C328.203735,33.883411 326.388611,34.146439 324.643066,33.905529 
	C323.714569,33.777382 322.906555,32.776493 322.044159,32.169544 
	C322.958557,31.457130 324.533112,30.009058 324.685486,30.145800 
	C326.253448,31.552898 331.011444,27.574972 329.917816,33.573112 
	C329.855377,33.965694 329.920776,33.895939 329.955353,33.862930 
z"/>
<path fill="#FBFBFB" opacity="1.000000" stroke="none" 
	d="
M154.717682,33.978146 
	C153.773468,32.762138 153.238464,31.537998 152.747620,30.414902 
	C155.853333,30.414902 158.245728,30.414902 160.638123,30.414902 
	C160.889328,30.787134 161.140533,31.159367 161.391739,31.531599 
	C160.161163,32.115833 158.952454,32.753937 157.692215,33.265030 
	C156.876038,33.596039 155.984589,33.741440 154.717682,33.978146 
z"/>
<path fill="#FBFBFB" opacity="1.000000" stroke="none" 
	d="
M45.896057,54.966202 
	C44.701847,54.165955 43.898731,53.358002 43.095619,52.550049 
	C44.046009,52.045448 44.956135,51.241909 45.956348,51.107170 
	C47.412067,50.911072 48.932671,51.196693 50.769951,51.295414 
	C50.819511,52.284840 50.880623,53.504864 50.941769,54.725620 
	C49.204491,54.812538 47.745827,54.885513 45.896057,54.966202 
z"/>
<path fill="#FCFDFD" opacity="1.000000" stroke="none" 
	d="
M263.586243,88.177795 
	C266.274323,88.027382 268.559875,88.027382 272.386108,88.027382 
	C270.532990,89.973679 269.598633,90.955009 268.664276,91.936340 
	C267.388916,89.895950 261.916199,94.231117 263.586243,88.177795 
z"/>
<path fill="#FBFBFB" opacity="1.000000" stroke="none" 
	d="
M125.708160,30.018259 
	C126.676109,30.328228 127.208862,30.733185 127.809212,30.915281 
	C129.172607,31.328821 130.569260,31.632759 131.952393,31.981251 
	C130.534073,32.444576 129.125687,32.941952 127.694077,33.359684 
	C126.678452,33.656036 125.631447,33.844845 123.497124,34.334126 
	C124.292519,32.431179 124.798088,31.221622 125.708160,30.018259 
z"/>
<path fill="#FBFBFB" opacity="1.000000" stroke="none" 
	d="
M144.044128,70.975365 
	C142.841156,70.125771 141.597443,69.286842 140.353745,68.447914 
	C141.346100,67.117355 142.140884,65.018044 144.106476,67.532692 
	C144.205978,67.660004 144.805099,67.321091 145.166870,67.333755 
	C146.126175,67.367348 147.082901,67.474724 148.040649,67.552742 
	C147.720062,68.506081 147.399475,69.459419 146.991547,70.735153 
	C146.904190,71.057533 146.984299,70.987137 146.684631,70.933411 
	C145.565903,70.461777 144.746857,70.043877 143.927811,69.625969 
	C143.944412,70.106049 143.961029,70.586121 143.977631,71.066200 
	C143.977631,71.066200 144.003403,70.986031 144.044128,70.975365 
z"/>
<path fill="#000000" opacity="1.000000" stroke="none" 
	d="
M348.966309,43.132397 
	C349.920410,42.073643 350.738770,41.253765 351.725861,40.804817 
	C356.742798,38.523014 358.176575,39.457592 359.672760,45.992992 
	C356.317261,45.992992 353.000580,46.056469 349.695923,45.886375 
	C349.393982,45.870834 349.169037,44.359226 348.966309,43.132397 
z"/>
<path fill="#000000" opacity="1.000000" stroke="none" 
	d="
M326.236084,45.004028 
	C324.876892,43.630733 323.956421,42.253403 323.035980,40.876068 
	C324.735229,40.039333 326.434479,39.202606 329.460815,37.712399 
	C328.143341,41.185730 331.256012,44.291340 326.236084,45.004028 
z"/>
<path fill="#000000" opacity="1.000000" stroke="none" 
	d="
M385.377838,40.302601 
	C386.304596,40.989872 386.980652,41.932571 387.656677,42.875271 
	C387.273132,43.130638 386.889587,43.386005 386.506042,43.641369 
	C386.046417,42.613590 385.586761,41.585812 385.377838,40.302601 
z"/>
<path fill="#000000" opacity="1.000000" stroke="none" 
	d="
M67.857269,45.997829 
	C65.084167,45.997929 62.769131,45.997929 60.422676,45.997929 
	C61.435699,40.513058 63.958797,38.639946 68.698975,40.129108 
	C69.694221,40.441780 70.855865,42.196499 70.816986,43.245060 
	C70.781860,44.192234 69.209694,45.082417 67.857269,45.997829 
z"/>
<path fill="#000000" opacity="1.000000" stroke="none" 
	d="
M364.851440,78.409302 
	C360.719055,82.231033 360.112946,82.006332 357.667267,74.829582 
	C360.741669,76.169838 362.859924,77.093285 364.851440,78.409302 
z"/>
<path fill="#000000" opacity="1.000000" stroke="none" 
	d="
M288.338806,45.864258 
	C286.127075,45.982574 284.320618,45.982574 281.335724,45.982574 
	C282.403412,43.626328 283.218689,41.827145 284.033997,40.027969 
	C285.604004,41.933964 287.174042,43.839951 288.338806,45.864258 
z"/>
<path fill="#000000" opacity="1.000000" stroke="none" 
	d="
M263.369263,40.606030 
	C265.585571,39.753696 267.917786,39.263866 270.250000,38.774033 
	C270.513519,39.385426 270.777039,39.996815 271.040558,40.608208 
	C269.620544,41.957447 268.200531,43.306690 266.780518,44.655930 
	C265.682068,43.426792 264.583618,42.197659 263.369263,40.606030 
z"/>
<path fill="#000000" opacity="1.000000" stroke="none" 
	d="
M185.003265,79.071396 
	C186.642807,77.496758 188.281158,76.355392 190.806732,74.595924 
	C190.806732,78.387413 190.806732,80.452415 190.806732,82.959946 
	C188.121719,82.870804 185.357391,83.483688 185.003265,79.071396 
z"/>
<path fill="#000000" opacity="1.000000" stroke="none" 
	d="
M154.904297,39.604740 
	C156.311417,39.173214 157.435364,39.060192 158.787689,38.924206 
	C158.787689,41.201870 158.787689,43.287140 158.787689,46.337559 
	C156.838608,45.740051 154.741974,45.562351 153.421356,44.457272 
	C152.912750,44.031666 154.168991,41.496979 154.904297,39.604740 
z"/>
<path fill="#000000" opacity="1.000000" stroke="none" 
	d="
M130.694244,39.424652 
	C130.957230,41.394554 130.957230,43.004143 130.957230,44.613728 
	C130.576355,45.016735 130.195480,45.419739 129.814621,45.822742 
	C128.211090,44.534203 125.419128,43.396206 125.233154,41.928093 
	C124.731934,37.971512 128.183075,39.204800 130.694244,39.424652 
z"/>
<path fill="#000000" opacity="1.000000" stroke="none" 
	d="
M170.001892,79.076309 
	C171.312515,77.549675 172.622040,76.454628 174.751312,74.674065 
	C174.751312,78.497902 174.751312,80.697739 174.751312,82.897575 
	C174.372116,83.166382 173.992920,83.435188 173.613724,83.704002 
	C172.409409,82.305298 171.205078,80.906593 170.001892,79.076309 
z"/>
<path fill="#000000" opacity="1.000000" stroke="none" 
	d="
M143.227371,76.008080 
	C144.305695,77.074944 144.980072,78.154427 145.674835,79.266502 
	C145.877518,78.120262 146.122849,76.732925 146.368179,75.345596 
	C146.777725,75.468437 147.187286,75.591278 147.596832,75.714119 
	C146.811508,77.795692 146.026169,79.877258 145.240845,81.958824 
	C144.117126,81.425957 142.217880,81.074020 142.041977,80.320038 
	C141.738342,79.018532 142.505539,77.467209 143.227371,76.008080 
z"/>
<path fill="#000000" opacity="1.000000" stroke="none" 
	d="
M144.312775,71.099686 
	C143.961029,70.586121 143.944412,70.106049 143.927811,69.625969 
	C144.746857,70.043877 145.565903,70.461777 146.733551,70.912216 
	C146.270752,71.007568 145.459351,71.070374 144.312775,71.099686 
z"/>
<path fill="#000000" opacity="1.000000" stroke="none" 
	d="
M189.242798,42.766685 
	C189.382797,43.329262 189.276031,43.647671 189.169250,43.966076 
	C188.791183,43.589546 188.413116,43.213017 188.035034,42.836494 
	C188.355362,42.731838 188.675690,42.627178 189.242798,42.766685 
z"/>
<path fill="#000000" opacity="1.000000" stroke="none" 
	d="
M219.284393,40.352310 
	C221.153259,39.548489 222.779083,39.100979 224.761520,38.555302 
	C224.761520,40.933376 224.761520,42.672363 224.761520,44.746559 
	C221.597290,45.192574 218.494324,45.792946 219.284393,40.352310 
z"/>
<path fill="#000000" opacity="1.000000" stroke="none" 
	d="
M107.012520,45.963867 
	C104.737755,45.016273 102.890717,44.038246 101.043678,43.060219 
	C102.263283,41.734558 103.486465,39.274410 104.701889,39.278240 
	C110.166969,39.295437 107.701385,43.180946 107.012520,45.963867 
z"/>
<path fill="#000000" opacity="1.000000" stroke="none" 
	d="
M246.243195,82.263016 
	C244.638062,81.690536 242.834305,81.096451 242.176788,79.881874 
	C241.758606,79.109390 242.721481,76.987152 243.669418,76.277817 
	C244.361801,75.759712 247.090729,76.501411 247.105560,76.778305 
	C247.197632,78.496544 246.779022,80.242142 246.243195,82.263016 
z"/>
</svg>